<svg xmlns="http://www.w3.org/2000/svg" id="calender"><circle cx="31.5" cy="32.5" r="27.491" fill="#FFF" stroke="#000" stroke-width="2"></circle><circle cx="32.26" cy="32.5" r="25.781" fill="#EE3432"></circle><path fill="none" stroke="#FCC39B" stroke-linecap="round" d="M55.774 28.04c.334 1.349.584 2.792.726 4.333m-8.058-17.176a26.327 26.327 0 0 1 7.022 10.782m-46.714.954a28.987 28.987 0 0 0-.725 4.334m8.42-17.4a26.334 26.334 0 0 0-7.022 10.782"></path><path fill="none" stroke="#000" stroke-width="2" d="M43.736 41.916a2.016 2.016 0 0 1-2.017 2.015H22.231a2.015 2.015 0 0 1-2.016-2.015V24.779c0-1.113.903-2.016 2.016-2.016H41.72c1.113 0 2.017.903 2.017 2.016v17.137zM25.815 20.02v6.328M31.864 20.02v6.328M38.585 20.02v6.328"></path><path d="M25.032 29.372h3.359v2.519h-3.359zM30.408 29.372h3.36v2.519h-3.36zM35.784 29.372h3.36v2.519h-3.36zM25.032 33.403h3.359v2.521h-3.359zM30.408 33.403h3.36v2.521h-3.36zM35.784 33.403h3.36v2.521h-3.36zM25.032 37.436h3.359v2.521h-3.359zM30.408 37.436h3.36v2.521h-3.36zM35.784 37.436h3.36v2.521h-3.36z"></path></svg>